HIERARCHY
ROOT Hips
{
  OFFSET 3.13124 94.3669 -3.18751
  CHANNELS  6 Xposition Yposition Zposition Zrotation Xrotation Yrotation
  JOINT LeftUpLeg
  {
    OFFSET 8.64259 1.95398 -2.38835
    CHANNELS 3 Zrotation Xrotation Yrotation
    JOINT LeftLeg
    {
      OFFSET 43.7702 0 0
      CHANNELS 3 Zrotation Xrotation Yrotation
      JOINT LeftFoot
      {
        OFFSET 40.6238 0 0
        CHANNELS 3 Zrotation Xrotation Yrotation
        JOINT LeftToeBase
        {
          OFFSET 12.7242 0 0
          CHANNELS 3 Zrotation Xrotation Yrotation
          End Site
          {
            OFFSET 0 0 0
          }
        }
      }
    }
  }
  JOINT RightUpLeg
  {
    OFFSET -8.2249 1.95398 -2.59336
    CHANNELS 3 Zrotation Xrotation Yrotation
    JOINT RightLeg
    {
      OFFSET 43.5653 0 0
      CHANNELS 3 Zrotation Xrotation Yrotation
      JOINT RightFoot
      {
        OFFSET 40.6238 0 0
        CHANNELS 3 Zrotation Xrotation Yrotation
        JOINT RightToeBase
        {
          OFFSET 12.7242 0 0
          CHANNELS 3 Zrotation Xrotation Yrotation
          End Site
          {
            OFFSET 0 0 0
          }
        }
      }
    }
  }
  JOINT Spine
  {
    OFFSET 0.165834 0.87714 6.61349
    CHANNELS 3 Zrotation Xrotation Yrotation
    JOINT Spine1
    {
      OFFSET 7.38962 1.71661e-005 0
      CHANNELS 3 Zrotation Xrotation Yrotation
      JOINT Spine2
      {
        OFFSET 11.9445 1.14441e-005 0
        CHANNELS 3 Zrotation Xrotation Yrotation
        JOINT Spine3
        {
          OFFSET 14.7254 4.19617e-005 0
          CHANNELS 3 Zrotation Xrotation Yrotation
          JOINT Spine4
          {
            OFFSET 10.9679 0 0
            CHANNELS 3 Zrotation Xrotation Yrotation
            JOINT RightShoulder
            {
              OFFSET 2.46616 -1.6653 3.69651
              CHANNELS 3 Zrotation Xrotation Yrotation
              JOINT RightArm
              {
                OFFSET 13.0012 0 0
                CHANNELS 3 Zrotation Xrotation Yrotation
                JOINT RightForeArm
                {
                  OFFSET 28.7848 1.52588e-005 0
                  CHANNELS 3 Zrotation Xrotation Yrotation
                  JOINT RightHand
                  {
                    OFFSET 26.5688 1.52588e-005 0
                    CHANNELS 3 Zrotation Xrotation Yrotation
                    End Site
                    {
                      OFFSET 0 0 0
                    }
                  }
                }
              }
            }
            JOINT LeftShoulder
            {
              OFFSET 2.38034 -1.29275 -3.75231
              CHANNELS 3 Zrotation Xrotation Yrotation
              JOINT LeftArm
              {
                OFFSET 16.3182 6.10352e-005 0
                CHANNELS 3 Zrotation Xrotation Yrotation
                JOINT LeftForeArm
                {
                  OFFSET 27.0901 0 0
                  CHANNELS 3 Zrotation Xrotation Yrotation
                  JOINT LeftHand
                  {
                    OFFSET 24.5451 1.52588e-005 0
                    CHANNELS 3 Zrotation Xrotation Yrotation
                    End Site
                    {
                      OFFSET 0 0 0
                    }
                  }
                }
              }
            }
            JOINT Neck
            {
              OFFSET 5.0226 -0.0266342 0
              CHANNELS 3 Zrotation Xrotation Yrotation
              JOINT Head
              {
                OFFSET 6.69363 2.86102e-005 0
                CHANNELS 3 Zrotation Xrotation Yrotation
                End Site
                {
                  OFFSET 0 0 0
                }
              }
            }
          }
        }
      }
    }
  }
}
MOTION
Frames:	7
Frame Time:	0.0333333
0.958887 95.1244 0.562247 -90.1593 85.2232 -90.1308 -178.325 3.51204 92.8278 -10.6588 1.6952 0.107318 64.3307 0.753062 0.317525 28.7808 8.29867e-006 1.40592e-005 159.399 5.93683 88.9288 -11.2705 6.05909 -8.14995 67.8209 -9.04348 23.7705 28.7808 8.71266e-006 1.94561e-005 -0.0236997 6.34681 -89.709 14.1917 1.67498e-005 -2.46779e-006 2.52079 1.50028e-006 6.55291e-006 -20.0144 -3.15485e-006 -2.89987e-006 -0.00171947 -5.73954e-006 -6.84099e-006 102.153 -18.2414 -82.1652 0.534723 30.0316 -10.2439 -17.3004 -29.7582 -29.2043 5.93524 0.247327 -0.258567 -77.7725 -21.1213 97.0516 15.1022 2.10612 -6.14257 4.87466 -2.14289 -19.9135 -1.16254 -0.0427206 -0.111987 1.7542 0.00043292 0.000520165 -7.41162 0.000337459 1.89621e-005 
0.957116 95.1265 0.557075 -90.1599 85.2287 -90.1428 -178.328 3.49353 92.8252 -10.6508 1.70413 0.107318 64.345 0.627329 0.247011 28.7808 8.29867e-006 1.40592e-005 159.413 5.92529 88.9311 -11.2308 6.2405 -8.18967 67.8275 -9.06394 23.9363 28.7808 8.71266e-006 1.94561e-005 -0.0236723 6.34678 -89.7084 14.1917 1.67487e-005 -2.46903e-006 2.52079 1.49932e-006 6.55234e-006 -20.0144 -3.1479e-006 -2.81158e-006 -0.00171947 -5.62498e-006 -6.69032e-006 102.171 -18.286 -82.1446 0.55383 30.0183 -10.1504 -17.3974 -29.8409 -29.3028 5.73911 0.245052 -0.133688 -77.7739 -21.0759 97.0328 14.9781 2.15153 -6.20386 4.8321 -2.32606 -19.8778 -1.18719 -0.0427198 -0.364553 1.8407 0.0627783 0.061582 -7.52357 0.0520856 0.0213799 
0.95278 95.1299 0.548153 -90.1553 85.2492 -90.1665 -178.317 3.19557 92.7953 -10.0714 1.69968 0.107318 64.11 0.739112 0.30114 28.7808 8.29867e-006 1.40592e-005 159.395 5.91908 88.9009 -11.2291 6.12734 -8.17759 67.8234 -9.0317 23.8711 28.7808 8.71266e-006 1.94561e-005 -0.0242946 6.34643 -89.7008 14.1917 -0.000146946 -0.000236402 2.52079 -0.000171528 -0.000216922 -20.0144 -8.51508e-005 -0.000260142 -0.00171947 -7.82223e-005 -0.000258553 102.159 -18.3186 -82.1294 0.581196 30.0259 -10.0788 -17.4366 -29.7449 -29.4379 5.84106 0.278321 0.360951 -77.7885 -21.0446 97.014 14.8919 2.147 -6.2584 4.87311 -2.21495 -19.8108 -1.25502 -0.0427192 -0.480638 1.98438 0.134079 0.0836326 -7.65412 0.120658 0.104993 
0.949558 95.1236 0.543506 -90.0297 85.2591 -90.2879 -178.354 3.60193 92.7895 -10.8732 1.5646 0.107311 64.3492 0.7115 0.295702 28.7808 8.29867e-006 1.40592e-005 159.396 5.95248 88.9056 -11.279 6.14299 -8.17525 67.8493 -9.03062 23.8706 28.7808 8.71266e-006 1.94561e-005 -0.0297353 6.34747 -89.7239 14.1917 -0.0189117 -0.0268288 2.52078 -0.0200953 -0.0259541 -20.0144 -0.00998444 -0.0312614 -0.00172492 -0.00998885 -0.0312685 102.153 -18.2405 -82.1656 0.592626 30.007 -9.98298 -17.5265 -29.8607 -29.5094 5.41375 0.250566 0.210137 -77.7725 -21.1222 97.052 14.8659 2.22362 -6.23755 4.88087 -2.1563 -19.8365 -1.2414 -0.0427197 -0.385453 2.02939 0.250113 0.210071 -7.63686 0.20149 0.220653 
0.946961 95.1221 0.534659 -90.145 85.2848 -90.1876 -178.359 3.5769 92.772 -10.8698 1.54471 0.10731 64.3416 0.715613 0.297614 28.7808 8.29867e-006 1.40592e-005 159.394 5.95383 88.8891 -11.2857 6.16612 -8.18692 67.8763 -9.02204 23.9297 28.7808 8.71266e-006 1.94561e-005 -0.0317867 6.34757 -89.7263 14.1917 -0.0256485 -0.0343477 2.52075 -0.0271591 -0.0331976 -20.0144 -0.0141427 -0.0404551 -0.00174766 -0.0141618 -0.0404866 102.154 -18.2503 -82.1611 0.597379 30.0394 -9.88289 -17.6746 -29.8729 -29.7512 5.35596 0.265478 0.554236 -77.775 -21.113 97.0461 14.8077 2.14154 -6.17988 4.88809 -2.09508 -19.8965 -1.22295 -0.0427198 -0.372691 2.15198 0.367365 0.350226 -7.73109 0.296483 0.209962 
0.948055 95.127 0.533305 -90.1181 85.2911 -90.237 -178.346 3.31084 92.7554 -10.3326 1.56908 0.107309 64.1441 0.699021 0.280504 28.7808 8.29867e-006 1.40592e-005 159.413 5.95877 88.8734 -11.2834 6.12118 -8.1952 67.8668 -8.99387 23.8687 28.7808 8.71266e-006 1.94561e-005 -0.0376225 6.34741 -89.7226 14.1875 -0.0380627 -0.0411087 2.51652 -0.0398636 -0.0393977 -20.0186 -0.0239619 -0.0506334 -0.00598867 -0.0239599 -0.0506469 102.153 -18.2396 -82.166 0.587044 30.0385 -9.81985 -17.6489 -29.8026 -29.7582 5.17611 0.263168 0.593684 -77.7736 -21.1239 97.05 14.7889 2.10658 -6.1396 4.81885 -2.35271 -19.9032 -1.15883 -0.0427196 -0.401026 2.24017 0.467526 0.429084 -7.78117 0.37619 0.267276 
0.947024 95.1266 0.527828 -90.4585 85.3067 -89.9073 -178.347 3.26183 92.7473 -10.2938 1.56884 0.107303 64.1293 0.706034 0.283631 28.7808 8.29867e-006 1.40592e-005 159.408 5.94073 88.8622 -11.2932 6.12715 -8.21278 67.8847 -9.00637 23.8917 28.7808 8.71266e-006 1.94561e-005 -0.040483 6.34753 -89.7249 14.1779 -0.0450204 -0.047035 2.50695 -0.0470795 -0.0450275 -20.0282 -0.0288189 -0.0583818 -0.015548 -0.0288382 -0.058413 102.152 -18.2376 -82.167 0.570235 30.0495 -9.76571 -17.8087 -30.0188 -29.8737 5.07166 0.25896 0.705429 -77.7733 -21.1259 97.0508 14.8281 2.25487 -6.10638 4.76507 -2.63981 -19.92 -1.19848 -0.0427202 -0.262483 2.24567 0.550052 0.427196 -7.75661 0.451327 0.397941 
